<svg xmlns="http://www.w3.org/2000/svg" viewBox="0 0 512 512"><defs><style>.a{fill:#fff;}.b{fill:none;}.c{fill:#0b417c;}.d{fill:#2d73d2;}</style></defs><path class="a" d="M270.53,201.31v-14.6c0-4.61-.58-4.93-4.6-5l-98.82,0c-3.21.16-4.05.44-4.05,5V206c0,4.64.58,5.23,5.23,5.23h57.09A4,4,0,0,1,229,217L178.17,326.08H205c9.76-.07,10.28-1.14,12.48-5.68L224,306.46a4,4,0,0,1,1-2.16l43.27-92C270.42,207.71,270.53,205.89,270.53,201.31Z"/><path class="a" d="M374.9,230.56A119.21,119.21,0,0,0,356.37,232l-1,.16c-1.34.22-2.68.46-4,.73s-2.68.56-4,.88l-1,.24V127.83a8.77,8.77,0,0,0-8.76-8.76H144.09v11.14a5,5,0,0,1-10,0V119.07H121.6v25a5,5,0,0,1-10,0v-25H89a8.76,8.76,0,0,0-8.75,8.76v241.3A8.75,8.75,0,0,0,89,377.88H259.43l.24,1c.34,1.35.71,2.68,1.1,4s.8,2.68,1.24,4c.11.34.22.67.34,1A118.92,118.92,0,1,0,374.9,230.56ZM144,345H106V307h38Zm0-73.78H106v-38h38Zm0-73.78H106v-38h38Zm145-38h38v38H289Zm0,73.78h38v7.4a119.09,119.09,0,0,0-38,26.64Zm-64.29,90.63c-4.2,8.67-8.59,10.15-19.67,10.23h0V345H167V307h11.22l16.66-35.78H167v-38h38V249.5l14.09-30.24H168.29c-9,0-13.23-4.2-13.23-13.23V186.71c0-8.45,3.73-12.58,11.76-13H167V159.44h38v14.28h23V159.44h38v14.27c8.56.15,12.52,4.29,12.52,13v14.6c0,5.5-.28,8.52-2.94,14.33L266,236v35.2H249.45L232.63,307h31.19a118.61,118.61,0,0,0-7.73,38H228V316.83ZM447,421.6a102.11,102.11,0,0,1-166.68-33.72c-.13-.33-.27-.66-.4-1-.52-1.32-1-2.65-1.47-4s-.9-2.65-1.3-4c-.1-.33-.19-.66-.29-1a102.41,102.41,0,0,1-4-28.41,101.34,101.34,0,0,1,29.87-72.13c2.15-2.15,4.39-4.19,6.69-6.12a100.64,100.64,0,0,1,36.91-19.73l1-.29c1.32-.37,2.66-.7,4-1s2.66-.6,4-.86l1-.18a102.67,102.67,0,0,1,18.53-1.68A102,102,0,0,1,447,421.6Z"/><path class="a" d="M374.9,277.52a72.08,72.08,0,0,0-18.53,2.42l-1,.28c-1.35.38-2.69.8-4,1.25s-2.69,1-4,1.51l-1,.43A72.28,72.28,0,0,0,316.83,307a71.53,71.53,0,0,0-13.73,38c-.09,1.48-.15,3-.15,4.47a71.73,71.73,0,0,0,5.84,28.41c.14.34.3.67.45,1,.61,1.36,1.25,2.69,1.94,4s1.46,2.7,2.25,4c.21.34.43.67.65,1A71.95,71.95,0,1,0,374.9,277.52Zm46.22,64.86-45.43,45.43a10.76,10.76,0,0,1-15.35,0l-7.62-7.62-.71-.71-2.88-2.87-2.91-2.91-.74-.75-16.79-16.79A10.76,10.76,0,0,1,326.05,345a10.33,10.33,0,0,1,.95-2,11.14,11.14,0,0,1,1.69-2.17l11-11a10.66,10.66,0,0,1,6.7-3.17c.32,0,.64-.05,1-.05h0a10.75,10.75,0,0,1,4,.77,11,11,0,0,1,3.64,2.44l.36.35,1,1L368,342.83l26.78-26.78a10.76,10.76,0,0,1,15.35,0l11,11a10.76,10.76,0,0,1,0,15.35Z"/><path class="a" d="M133.88,89.33a6,6,0,0,0-12.07,0v19.74h12.07Z"/><path class="a" d="M297.86,89.33a6,6,0,0,0-12.07,0v19.74h12.07Z"/><path class="b" d="M133.88,89.33a6,6,0,0,0-12.07,0v19.74h12.07Z"/><path class="b" d="M163.06,186.71V206c0,4.64.58,5.23,5.23,5.23h57.09A4,4,0,0,1,229,217L178.17,326.08H205c9.76-.07,10.28-1.14,12.48-5.68L224,306.46a4,4,0,0,1,1-2.16l43.27-92c2.09-4.56,2.2-6.38,2.2-11v-14.6c0-4.61-.58-4.93-4.6-5l-98.82,0C163.9,181.89,163.06,182.17,163.06,186.71Z"/><path class="b" d="M404.48,321.71a2.66,2.66,0,0,0-2-.88,2.63,2.63,0,0,0-2,.88L368,354.14,356.37,342.5l-1-1-4-4-2-2a2.62,2.62,0,0,0-2-.87h0a2.74,2.74,0,0,0-1,.18,2.93,2.93,0,0,0-1.05.7l-11,11a2.77,2.77,0,0,0,0,4l12,12,1,1,4,4,3.84,3.84.88.88,9.91,9.91a2.77,2.77,0,0,0,4,0l45.43-45.44a2.75,2.75,0,0,0,0-4Z"/><path class="b" d="M440,284.41a91.4,91.4,0,0,0-65.06-27,92.66,92.66,0,0,0-18.53,1.87l-1,.22c-1.34.29-2.68.6-4,.95s-2.68.73-4,1.15c-.34.1-.67.22-1,.33A90.82,90.82,0,0,0,327,270.89l-.52.33A92.5,92.5,0,0,0,293.25,307a90.92,90.92,0,0,0-4.25,9.45,92.47,92.47,0,0,0-1.63,61.43l.33,1c.45,1.35.94,2.68,1.45,4s1.08,2.68,1.67,4c.15.33.29.67.45,1A92,92,0,1,0,440,284.41Zm-18.84,58-45.43,45.43a10.76,10.76,0,0,1-15.35,0l-7.62-7.62-.71-.71-2.88-2.87-2.91-2.91-.74-.75-16.79-16.79A10.76,10.76,0,0,1,326.05,345a10.33,10.33,0,0,1,.95-2,11.14,11.14,0,0,1,1.69-2.17l11-11a10.66,10.66,0,0,1,6.7-3.17c.32,0,.64-.05,1-.05h0a10.75,10.75,0,0,1,4,.77,11,11,0,0,1,3.64,2.44l.36.35,1,1L368,342.83l26.78-26.78a10.76,10.76,0,0,1,15.35,0l11,11a10.76,10.76,0,0,1,0,15.35Z"/><path class="b" d="M297.86,89.33a6,6,0,0,0-12.07,0v19.74h12.07Z"/><path class="c" d="M228,177.7H168.29c-.45,0-.87,0-1.28,0-5.88.29-7.95,2.76-7.95,9V206c0,6.87,2.36,9.23,9.23,9.23h57.09L205,258.91l-5.74,12.31L182.58,307,176,321.07c-2.57,5.58-2.14,9,4.51,9H205c10.6-.07,12.94-1.46,16.08-7.94L228,307.43l.2-.43L245,271.22l17.87-38L272,214c2.36-5.15,2.58-7.51,2.58-12.66v-14.6c0-6.48-2-8.88-8.52-9H228Zm42.52,9v14.6c0,4.58-.11,6.4-2.2,11l-43.27,92a4,4,0,0,0-1,2.16l-6.55,13.94c-2.2,4.54-2.72,5.61-12.48,5.68H178.17L229,217a4,4,0,0,0-3.62-5.69H168.29c-4.65,0-5.23-.59-5.23-5.23V186.71c0-4.54.84-4.82,4.05-5l98.82,0C270,181.78,270.53,182.1,270.53,186.71Z"/><path class="c" d="M278.53,201.31v-14.6c0-8.71-4-12.85-12.52-13v4c6.47.12,8.52,2.52,8.52,9v14.6c0,5.15-.22,7.51-2.58,12.66l-9.05,19.25H266V236l9.58-20.38C278.25,209.83,278.53,206.81,278.53,201.31Z"/><polygon class="c" points="228.21 307 232.63 307 249.45 271.22 245.03 271.22 228.21 307"/><path class="c" d="M221.09,322.14c-3.14,6.48-5.48,7.87-16.08,7.94v4h0c11.08-.08,15.47-1.56,19.67-10.23l3.3-7v-9.4Z"/><rect class="c" x="205.01" y="173.72" width="22.99" height="3.98"/><polygon class="c" points="199.27 271.22 194.9 271.22 178.23 307 182.58 307 199.27 271.22"/><path class="c" d="M225.38,215.26H168.29c-6.87,0-9.23-2.36-9.23-9.23V186.71c0-6.22,2.07-8.69,7.95-9v-4h-.19c-8,.39-11.76,4.52-11.76,13V206c0,9,4.2,13.23,13.23,13.23H219.1L205,249.5v9.41Z"/><path class="c" d="M265.51,177.7h.5v-4H228v4Z"/><path class="c" d="M168.29,177.7H205v-4H167v4C167.42,177.71,167.84,177.7,168.29,177.7Z"/><path class="c" d="M228,307.43v9.4l3.62-7.7.09-.22.11-.21.8-1.7h-4.42Z"/><path class="c" d="M204.13,330.09H180.52c-6.65,0-7.08-3.44-4.51-9L182.58,307h-4.35l-10,21.39a4,4,0,0,0,3.63,5.69H205v-4Z"/><polygon class="c" points="262.9 233.22 245.03 271.22 249.45 271.22 266.01 236.02 266.01 233.22 262.9 233.22"/><polygon class="c" points="205.01 258.91 205.01 249.5 194.9 271.22 199.27 271.22 205.01 258.91"/><path class="c" d="M447,277.34a101.31,101.31,0,0,0-72.13-29.88,102.67,102.67,0,0,0-18.53,1.68l-1,.18c-1.34.26-2.68.55-4,.86s-2.68.65-4,1l-1,.29a100.64,100.64,0,0,0-36.91,19.73c-2.3,1.93-4.54,4-6.69,6.12a101.34,101.34,0,0,0-29.87,72.13,102.41,102.41,0,0,0,4,28.41c.1.34.19.67.29,1,.4,1.35.84,2.68,1.3,4s.95,2.68,1.47,4c.13.34.27.67.4,1A102,102,0,1,0,447,277.34ZM440,414.53a92.06,92.06,0,0,1-148.69-26.65c-.16-.33-.3-.67-.45-1-.59-1.32-1.14-2.65-1.67-4s-1-2.65-1.45-4l-.33-1A92.47,92.47,0,0,1,289,316.45a90.92,90.92,0,0,1,4.25-9.45,92.5,92.5,0,0,1,33.23-35.78l.52-.33A90.82,90.82,0,0,1,346.37,262c.33-.11.66-.23,1-.33,1.32-.42,2.65-.8,4-1.15s2.66-.66,4-.95l1-.22a92.66,92.66,0,0,1,18.53-1.87A92,92,0,0,1,440,414.53Z"/><path class="c" d="M410.14,316.05a10.76,10.76,0,0,0-15.35,0L368,342.83l-11.64-11.65-1-1-.36-.35a11,11,0,0,0-3.64-2.44,10.75,10.75,0,0,0-4-.77h0c-.33,0-.65,0-1,.05a10.66,10.66,0,0,0-6.7,3.17l-11,11A11.14,11.14,0,0,0,327,343a10.33,10.33,0,0,0-.95,2,10.76,10.76,0,0,0,2.64,11.16L345.48,373l.74.75,2.91,2.91,2.88,2.87.71.71,7.62,7.62a10.76,10.76,0,0,0,15.35,0l45.43-45.43a10.76,10.76,0,0,0,0-15.35Zm5.32,20.67L370,382.16a2.77,2.77,0,0,1-4,0l-9.91-9.91-.88-.88-3.84-3.84-4-4-1-1-12-12a2.77,2.77,0,0,1,0-4l11-11a2.93,2.93,0,0,1,1.05-.7,2.74,2.74,0,0,1,1-.18h0a2.62,2.62,0,0,1,2,.87l2,2,4,4,1,1L368,354.14l32.44-32.43a2.63,2.63,0,0,1,2-.88,2.66,2.66,0,0,1,2,.88l11,11a2.75,2.75,0,0,1,0,4Z"/><path class="c" d="M260.77,382.88c-.39-1.32-.76-2.65-1.1-4l-.24-1H89a8.75,8.75,0,0,1-8.75-8.75V127.83A8.76,8.76,0,0,1,89,119.07H111.6v25a5,5,0,0,0,10,0v-25h12.49v11.14a5,5,0,0,0,10,0V119.07H337.61a8.77,8.77,0,0,1,8.76,8.76V234l1-.24c1.32-.32,2.66-.61,4-.88s2.66-.51,4-.73l1-.16V127.83a18.79,18.79,0,0,0-18.76-18.76H307.86V89.33a16,16,0,0,0-32.07,0v19.74H143.88V89.33a16,16,0,0,0-32.07,0v19.74H89a18.78,18.78,0,0,0-18.75,18.76v241.3A18.77,18.77,0,0,0,89,387.88H262.35c-.12-.33-.23-.66-.34-1C261.57,385.56,261.16,384.23,260.77,382.88Zm25-293.55a6,6,0,0,1,12.07,0v19.74H285.79Zm-164,0a6,6,0,0,1,12.07,0v19.74H121.81Z"/><path class="b" d="M90,129.07V367.88H257.27A121.15,121.15,0,0,1,256,350.41a119.87,119.87,0,0,1,80.58-113.24V129.07Z"/><polygon class="d" points="228.01 173.72 266.01 173.71 266.01 173.71 266.01 159.44 228.01 159.44 228.01 173.72"/><rect class="d" x="289" y="159.44" width="38" height="38"/><rect class="d" x="106.02" y="159.44" width="38" height="38"/><rect class="d" x="167.01" y="159.44" width="38" height="14.28"/><path class="d" d="M231.83,308.7l-.11.21-.09.22-3.62,7.7V345h28.08a118.61,118.61,0,0,1,7.73-38H232.63Z"/><rect class="d" x="106.02" y="307" width="38" height="38"/><path class="d" d="M178.23,307H167v38h38V334.08H171.89a4,4,0,0,1-3.63-5.69Z"/><polygon class="d" points="266.01 271.22 266.01 236.02 249.45 271.22 266.01 271.22"/><path class="d" d="M289,267.26a119.09,119.09,0,0,1,38-26.64v-7.4H289Z"/><rect class="d" x="106.02" y="233.22" width="38" height="38"/><polygon class="d" points="205.01 233.22 167.01 233.22 167.01 271.22 194.9 271.22 205.01 249.5 205.01 233.22"/><path class="d" d="M440,284.41a91.4,91.4,0,0,0-65.06-27,92.66,92.66,0,0,0-18.53,1.87l-1,.22c-1.34.29-2.68.6-4,.95s-2.68.73-4,1.15c-.34.1-.67.22-1,.33A90.82,90.82,0,0,0,327,270.89l-.52.33A92.5,92.5,0,0,0,293.25,307a90.92,90.92,0,0,0-4.25,9.45,92.47,92.47,0,0,0-1.63,61.43l.33,1c.45,1.35.94,2.68,1.45,4s1.08,2.68,1.67,4c.15.33.29.67.45,1A92,92,0,1,0,440,284.41Zm-65.06,137a71.86,71.86,0,0,1-60.82-33.54c-.22-.33-.44-.66-.65-1-.79-1.3-1.53-2.64-2.25-4s-1.33-2.64-1.94-4c-.15-.33-.31-.66-.45-1A71.73,71.73,0,0,1,303,349.47c0-1.5.06-3,.15-4.47a71.53,71.53,0,0,1,13.73-38,72.28,72.28,0,0,1,29.54-23.59l1-.43c1.31-.54,2.65-1,4-1.51s2.65-.87,4-1.25l1-.28A72,72,0,1,1,374.9,421.42Z"/><path class="d" d="M404.48,321.71a2.66,2.66,0,0,0-2-.88,2.63,2.63,0,0,0-2,.88L368,354.14,356.37,342.5l-1-1-4-4-2-2a2.62,2.62,0,0,0-2-.87h0a2.74,2.74,0,0,0-1,.18,2.93,2.93,0,0,0-1.05.7l-11,11a2.77,2.77,0,0,0,0,4l12,12,1,1,4,4,3.84,3.84.88.88,9.91,9.91a2.77,2.77,0,0,0,4,0l45.43-45.44a2.75,2.75,0,0,0,0-4Z"/><path class="d" d="M336.58,237.17q4.91-1.69,10-3V126.92a7.87,7.87,0,0,0-7.84-7.85H144.14v10H336.58Z"/><path class="d" d="M90,367.88V129.07H111.6v-10H87.86A7.87,7.87,0,0,0,80,126.92V370a7.87,7.87,0,0,0,7.85,7.84H259.17c-.77-3.28-1.4-6.62-1.9-10Z"/><rect class="d" x="121.6" y="119.07" width="12.54" height="10"/></svg>