<svg xmlns="http://www.w3.org/2000/svg" viewBox="0 0 512 512"><defs><style>.a{fill:#2d73d2;}.b{fill:#fff;}.c{fill:#0b417c;}</style></defs><path class="a" d="M339.32,95.35H256.58a18.05,18.05,0,0,0-18,18v21.76h80.23a5,5,0,0,1,5,5v54h33.57V113.38A18.05,18.05,0,0,0,339.32,95.35Z"/><polygon class="a" points="228.42 331.92 138.43 245.5 147.5 287.69 198.6 335.4 228.42 331.92"/><path class="a" d="M350.28,373H176.87a5,5,0,0,1-4.48-7.23c3.78-7.57,4-9.65,4-9.86s-.24-2.41-2.34-12.11A5.71,5.71,0,0,1,174,343l-14.25,1.5,1.87,8.71a5,5,0,0,1-.25,2.92,68.55,68.55,0,0,1-3.18,6.11c-1.71,3.1-3,5.53-4,7.41a67.9,67.9,0,0,0-2.8,6.31,13.2,13.2,0,0,0-1.16,4.13,7.23,7.23,0,0,0,7.06,7.06h193a7.07,7.07,0,0,0,0-14.13Z"/><path class="a" d="M320.13,321.2,198.94,204.1H148a5,5,0,0,1-4.94-4.29c-.09-.56-.29-1.83-.82-4.71-.44-2.37-.78-4.22-1-5.53a24.7,24.7,0,0,0-1.26-4,13.43,13.43,0,0,0-1.74-3.36,6,6,0,0,0-2-1.55,6.41,6.41,0,0,0-3.06-.66H84.88a7.07,7.07,0,0,0,0,14.13h38.45a5,5,0,0,1,4.89,3.94l1.56,7.27,127.81,123.2Z"/><path class="a" d="M169.32,397.12a19.47,19.47,0,1,0,13.43,5.7A18.17,18.17,0,0,0,169.32,397.12Z"/><path class="a" d="M338.22,397.12a19.47,19.47,0,1,0,13.43,5.7A18.21,18.21,0,0,0,338.22,397.12Z"/><path class="b" d="M214.07,194.1h27.68l-50.42-50.42h0l-51-51-13.84,13.84,63.35,63.34Z"/><polygon class="b" points="313.78 194.1 313.78 145.14 206.93 145.14 255.89 194.1 313.78 194.1"/><polygon class="b" points="138.43 245.5 228.42 331.92 257.59 328.51 129.78 205.31 138.43 245.5"/><path class="b" d="M159.71,344.47,174,343a5,5,0,0,1,4.4-5.2l20.24-2.37-51.1-47.7Z"/><path class="b" d="M379.36,206.21a6.66,6.66,0,0,0-4.95-2.11H286L326.86,243a5,5,0,0,1-6.9,7.24l-47.69-45.43a5.56,5.56,0,0,1-.64-.74H198.94L320.13,321.2l23-2.69-45.18-43a5,5,0,0,1,6.89-7.24l47.7,45.43a5,5,0,0,1,1.54,3.57l21.08-2.46a6.86,6.86,0,0,0,4.48-2.41,6.7,6.7,0,0,0,1.85-4.69V211.16A6.67,6.67,0,0,0,379.36,206.21Z"/><path class="c" d="M386.43,199.14a16.49,16.49,0,0,0-12-5h-7.06V113.38a28.07,28.07,0,0,0-28-28H256.58a28.06,28.06,0,0,0-28,28v21.76H196.93L143.8,82a5,5,0,0,0-7.07,0l-20.91,20.91a5,5,0,0,0,0,7.07l66.87,66.87h0l17.23,17.23H152.24c-.05-.26-.1-.53-.15-.82q-.66-3.59-1-5.59a33.35,33.35,0,0,0-1.76-5.76,23.25,23.25,0,0,0-3.16-5.89,16.19,16.19,0,0,0-5.32-4.29,16.58,16.58,0,0,0-7.68-1.78H84.88a17.07,17.07,0,0,0,0,34.13h34.41l32.15,149.49c-.39.75-1,1.94-2.05,3.79-1.75,3.19-3.1,5.69-4.11,7.66a74.33,74.33,0,0,0-3.23,7.26,21.75,21.75,0,0,0-1.85,7.76,16.45,16.45,0,0,0,5,12,17.38,17.38,0,0,0,4.15,3.12l-.57.56a29,29,0,1,0,41,41,28.66,28.66,0,0,0,1.29-39.63h125.3a29.13,29.13,0,1,0,42.3-1.37h0l-.57-.56a17.38,17.38,0,0,0,4.15-3.12,17.07,17.07,0,0,0-12-29.08H184.64c1.48-3.75,1.75-5.68,1.75-7.06,0-1-.2-2.86-1.43-8.87L376.35,324.7A16.86,16.86,0,0,0,387.1,319a16.63,16.63,0,0,0,4.38-11.34V211.16A16.5,16.5,0,0,0,386.43,199.14ZM140.27,92.62l51,51h0l50.42,50.42H214.07l-24.29-24.3-63.35-63.34Zm33.78,251.17c2.1,9.7,2.32,11.78,2.34,12.11s-.22,2.29-4,9.86a5,5,0,0,0,4.48,7.23H350.28a7.07,7.07,0,0,1,0,14.13h-193a7.23,7.23,0,0,1-7.06-7.06,13.2,13.2,0,0,1,1.16-4.13,67.9,67.9,0,0,1,2.8-6.31c1-1.88,2.28-4.31,4-7.41a68.55,68.55,0,0,0,3.18-6.11,5,5,0,0,0,.25-2.92l-1.87-8.71L147.5,287.7l-9.07-42.2-8.65-40.19L128.22,198a5,5,0,0,0-4.89-3.94H84.88a7.07,7.07,0,0,1,0-14.13h48.25a6.41,6.41,0,0,1,3.06.66,6,6,0,0,1,2,1.55,13.43,13.43,0,0,1,1.74,3.36,24.7,24.7,0,0,1,1.26,4c.25,1.31.59,3.16,1,5.53.53,2.88.73,4.15.82,4.71A5,5,0,0,0,148,204.1H271.63a5.56,5.56,0,0,0,.64.74L320,250.27a5,5,0,1,0,6.9-7.24L286,204.1h88.43a7.23,7.23,0,0,1,7.07,7.06v96.51a6.7,6.7,0,0,1-1.85,4.69,6.86,6.86,0,0,1-4.48,2.41l-21.08,2.46a5,5,0,0,0-1.54-3.57l-47.7-45.43a5,5,0,0,0-6.89,7.24l45.18,43-23,2.69-62.54,7.31-29.17,3.41L198.6,335.4l-20.24,2.37A5,5,0,0,0,174,343,5.71,5.71,0,0,0,174.05,343.79ZM357.35,194.1H323.78v-54a5,5,0,0,0-5-5H238.55V113.38a18.05,18.05,0,0,1,18-18h82.74a18.05,18.05,0,0,1,18,18ZM188.45,416.25a19,19,0,0,1-32.55,13.43,19,19,0,1,1,26.85-26.86A18.19,18.19,0,0,1,188.45,416.25Zm136.34-13.43a18.67,18.67,0,1,1-5.7,13.43A18.21,18.21,0,0,1,324.79,402.82Zm-11-257.68v49H255.89l-49-49Z"/></svg>