<svg xmlns="http://www.w3.org/2000/svg" viewBox="0 0 512 512"><defs><style>.a{fill:#2d73d2;}.b{fill:#fff;}.c{fill:#0b417c;}</style></defs><path class="a" d="M266.67,314.71a51.88,51.88,0,1,0,51.89,51.89A51.65,51.65,0,0,0,266.67,314.71ZM294,366.48a27.75,27.75,0,1,1-27.75-27.75c.52,0,1,0,1.56,0A27.76,27.76,0,0,1,294,366.48Z"/><path class="a" d="M411.85,355a31.78,31.78,0,0,0-31.74,31.75h0a31.74,31.74,0,1,0,63.48,0h0A31.78,31.78,0,0,0,411.85,355Zm0,48.83a17.09,17.09,0,1,1,17.09-17.08A17.08,17.08,0,0,1,411.85,403.83Z"/><path class="a" d="M414,156.23l-86.19,0a10,10,0,0,0-9.48,6.77l-7.19,21L376.19,249H414Z"/><path class="a" d="M295.27,230l-.08.24L329,264.05l9.19-9c.25-.24.51-.46.77-.69l-38.73-38.72Z"/><path class="a" d="M278.68,278.34h31.38a10.57,10.57,0,0,0,7.44-3l3.31-3.25-29.76-29.76C285.69,257.9,281,271.64,278.68,278.34Z"/><path class="b" d="M60.91,311.81l100.4,30.64,30.63-100.4L91.55,211.42Zm69.47-44.45L150,256.91a5.42,5.42,0,0,1,7.3,2.22l10.45,19.64a5,5,0,0,1-8.83,4.7L154,274.28l-13.57,44.48a5,5,0,0,1-4.78,3.54,4.88,4.88,0,0,1-1.46-.22,5,5,0,0,1-3.33-6.24l13.64-44.68-9.45,5a5,5,0,0,1-4.7-8.83Zm-25.86,20L115,307a5,5,0,0,1-8.83,4.7l-8.28-15.56L82.3,304.45a5,5,0,0,1-4.7-8.82l19.63-10.45A5.4,5.4,0,0,1,104.52,287.39Z"/><rect class="b" x="140.87" y="134.73" width="71.32" height="71.32" transform="translate(-37.97 289.5) rotate(-73.03)"/><path class="b" d="M353,249h23.23L311.1,183.92l-10.89,31.71,38.73,38.72A21,21,0,0,1,353,249Z"/><path class="b" d="M436.59,259H353a11.07,11.07,0,0,0-7.79,3.18l-17.4,17.06.16.16h-.33l-3.1,3a20.53,20.53,0,0,1-14.44,5.9H253.28a6.47,6.47,0,0,0-6.46,6.46V308a61.86,61.86,0,0,1,79.85,73.76h43.75a41.7,41.7,0,0,1,73.17-22.07V266A7,7,0,0,0,436.59,259Z"/><path class="b" d="M329,264.05l-33.79-33.8-4.14,12,29.76,29.76Z"/><path class="b" d="M267.83,338.77c-.52,0-1,0-1.56,0a27.67,27.67,0,1,0,1.56,0Z"/><circle class="b" cx="411.85" cy="386.75" r="17.08"/><path class="c" d="M261.55,103.23a5,5,0,0,0-6.23,3.33L175.59,369l-77.53-23.8a5,5,0,1,0-2.93,9.57l82.32,25.27a5.22,5.22,0,0,0,1.46.22,5,5,0,0,0,4.79-3.55l81.18-267.26A5,5,0,0,0,261.55,103.23Z"/><path class="c" d="M436.59,249H424V156.23a10,10,0,0,0-10-10H327.77a20,20,0,0,0-18.94,13.53c-4.87,14.22-14.37,41.88-23,67-12.08,35.16-16.21,47.2-17.63,51.58h-14.9a16.48,16.48,0,0,0-16.46,16.46v17.6a61.88,61.88,0,1,0,86.37,79.35h47.23a41.73,41.73,0,0,0,83-1,5.12,5.12,0,0,0,.19-1.31V266A17,17,0,0,0,436.59,249ZM411.85,418.49a31.78,31.78,0,0,1-31.74-31.74h0a31.74,31.74,0,1,1,63.48,0h0A31.78,31.78,0,0,1,411.85,418.49Zm0-73.49a41.8,41.8,0,0,0-41.43,36.75H326.67A61.86,61.86,0,0,0,246.82,308V294.8a6.47,6.47,0,0,1,6.46-6.46h56.78a20.53,20.53,0,0,0,14.44-5.9l3.1-3h.33l-.16-.16,17.4-17.06A11.07,11.07,0,0,1,353,259h83.63a7,7,0,0,1,7,7v93.68A41.65,41.65,0,0,0,411.85,345Zm-166-25.94a51.89,51.89,0,1,1-31.11,47.54A51.65,51.65,0,0,1,245.89,319.06ZM311.1,183.92l7.19-21a10,10,0,0,1,9.48-6.77l86.19,0V249H353a21,21,0,0,0-14,5.35c-.26.23-.52.45-.77.69l-9.19,9-8.17,8-3.31,3.25a10.57,10.57,0,0,1-7.44,3H278.68c2.29-6.7,7-20.44,12.37-36l4.14-12,.08-.24,4.94-14.38Z"/><path class="c" d="M164.63,353.69a5,5,0,0,0,4.78-3.54l33.56-110a5,5,0,0,0-3.32-6.24l-110-33.56a5,5,0,0,0-6.25,3.32l-33.55,110a5,5,0,0,0,.36,3.81,5.05,5.05,0,0,0,3,2.44l110,33.55A4.93,4.93,0,0,0,164.63,353.69Zm27.31-111.64-30.63,100.4L60.91,311.81,91.55,211.42Z"/><path class="c" d="M124.31,202.19l77.78,23.74a5,5,0,0,0,6.24-3.32l23.74-77.78a5,5,0,0,0-3.32-6.24L151,114.85a5,5,0,0,0-6.24,3.32L121,196A5,5,0,0,0,124.31,202.19Zm96.74-55.5-20.82,68.22L132,194.09l20.82-68.22Z"/><path class="c" d="M135.08,276.19l9.45-5-13.64,44.68a5,5,0,0,0,3.33,6.24,4.88,4.88,0,0,0,1.46.22,5,5,0,0,0,4.78-3.54L154,274.28l4.89,9.19a5,5,0,0,0,8.83-4.7L157.3,259.13a5.42,5.42,0,0,0-7.3-2.22l-19.62,10.45a5,5,0,0,0,4.7,8.83Z"/><path class="c" d="M75.54,302.39a5,5,0,0,0,6.76,2.06l15.56-8.28,8.28,15.56A5,5,0,0,0,115,307l-10.45-19.64a5.4,5.4,0,0,0-7.29-2.21L77.6,295.63A5,5,0,0,0,75.54,302.39Z"/></svg>