<svg xmlns="http://www.w3.org/2000/svg" viewBox="0 0 512 512"><defs><style>.a{fill:#fff;}.b{fill:#2d73d2;}.c{fill:#0b417c;}</style></defs><path class="a" d="M187.48,427H345.17A20.08,20.08,0,0,0,364,413.33H191.71A32,32,0,0,1,187.48,427Z"/><path class="a" d="M101.72,407.77h0V122c0-.34,0-.64,0-1Z"/><path class="a" d="M181.93,330.14V324.4c0-2-1.16-3-3.48-3-2.52,0-3.58,1-3.58,3v5.74c0,2,1.06,3,3.58,3C180.77,333.16,181.93,332.12,181.93,330.14Z"/><path class="a" d="M236.07,356.75c-2.53,0-3.58,1-3.58,3v5.74c0,2,1,3,3.58,3,2.32,0,3.48-1,3.48-3v-5.74C239.55,357.79,238.39,356.75,236.07,356.75Z"/><path class="a" d="M316.56,353.18a15.5,15.5,0,0,1-5-5.64l-1.43-2.81-3.75.15a15,15,0,0,1-14.65-8.9c-1.64-3.35-1.66-3.36-4.51-3.38-7.46,0-14.39-6.45-15.3-14.18-.33-2.76-.52-3-2.28-3.42a17.12,17.12,0,0,1-11.78-10.32c-1.56-4.08-1.1-10,1-13.18l1.6-2.42-4.45-5.52c-6.46-8-6-7.83-8.66-3-1.9,3.4-2.76,4.3-5,5.31a7.52,7.52,0,0,1-4.59.8c-2-.43-20.34-11.3-22.53-13.34a9.89,9.89,0,0,1-2.07-3.88c-.65-2.33-.59-3,.46-5.35.66-1.49,10-18.38,20.84-37.54s20.57-36.56,21.71-38.67a20.73,20.73,0,0,1,3.63-5.07,8.61,8.61,0,0,1,7.57-1.38c3.07,1.07,20.37,11.92,21.9,13.73,2.32,2.76,2.52,5.6.69,9.6-.87,1.89-1.57,3.52-1.57,3.62,0,.45,9.81,5.78,11.71,6.35,1.19.36,5.2,1.12,8.92,1.69l6.76,1,.76-1.18V120.74c0-10-8.19-17.75-18.6-17.75H130.76s9,5,9,19V407.77h.15a5,5,0,0,1,4.94-4.44H316.56ZM160.44,128H291.76a5,5,0,1,1,0,10H160.44a5,5,0,1,1,0-10Zm0,18.72H291.76a5,5,0,0,1,0,10H160.44a5,5,0,0,1,0-10Zm59.46,35.61a5,5,0,0,1-5,5H161a5,5,0,0,1,0-10h54A5,5,0,0,1,219.9,182.28ZM156,201a5,5,0,0,1,5-5h54a5,5,0,0,1,0,10H161A5,5,0,0,1,156,201Zm35.41,58a5,5,0,0,1-5,5,5,5,0,0,1-5-5,5.3,5.3,0,0,0-10.6,0,5,5,0,0,1-10,0,15.23,15.23,0,0,1,4-10.3,15.3,15.3,0,1,1,22.58,0A15.19,15.19,0,0,1,191.36,259ZM159,331.39v-8.14c0-10.44,6.84-16.91,19.48-16.91s19.38,6.47,19.38,16.91v8.14c0,10.33-6.74,16.7-19.38,16.7S159,341.72,159,331.39ZM186.14,382H173.4c-3.27,0-4-2.19-2.32-4.59l48.66-65.74c2.43-3.34,3.48-3.76,8.54-3.76h13.27c3,0,3.9,2.09,2.21,4.28L195.2,377.93C192.57,381.48,191.62,382,186.14,382Zm69.21-15.23c0,10.43-6.75,16.69-19.39,16.69s-19.48-6.26-19.48-16.69v-8.15c0-10.43,6.85-16.9,19.48-16.9s19.39,6.47,19.39,16.9Z"/><path class="a" d="M176.06,233.2a5.28,5.28,0,0,0-.66,10.53l.66,0c.22,0,.43,0,.65,0a5.28,5.28,0,0,0-.65-10.53Z"/><path class="a" d="M411.12,279.83c-19.76-15.13-34.31-24.61-54.71-35.63l-8.77-4.74-4.34,1.31c-2.38.73-4.33,1.55-4.33,1.82,0,1.09-8.13,9.14-12.41,12.42q-.6.47-1.08.78a38.23,38.23,0,0,1-3.38,2,37,37,0,0,1-5.54,2.36,29.74,29.74,0,0,1-9.16,1.57c-7.92,0-11.35-3.14-11.2-10.27.1-4.86,1.59-8.12,8.37-18.24l5.25-7.85-2.23-.38c-10.87-1.87-12.87-2.56-20-6.9-2-1.2-3.67-2.07-3.8-1.93-.57.58-29.34,51.86-29.34,52.29a6.07,6.07,0,0,0,1.61,2c.88.82,3.42,3.79,5.65,6.59l4.05,5.1,1.29-1.21c3.67-3.45,10.45-4.12,15.62-1.54,2.94,1.46,6.31,4.55,7.13,6.53.27.64.49.6,1-.22,3.23-5.09,6.95-7.28,12.35-7.28,4.53,0,7.06,1,10.47,4.06a18.1,18.1,0,0,1,2.89,3.31,15.31,15.31,0,0,1,2.49,6.86c.3,2.51.58,3,1.59,3a4.79,4.79,0,0,1,1.46.27,17.34,17.34,0,0,1,4.46,2.36,19.26,19.26,0,0,1,3.24,2.85A18.13,18.13,0,0,1,334,312.38c0,1.71.26,2.35.95,2.35,1.58,0,5.57,2.3,7.71,4.45,5.13,5.13,6.41,13.57,2.86,18.93l-1.68,2.54,1.4.53c1.55.59,11,2.94,13.43,3.35a25.8,25.8,0,0,0,9.44-.24,15,15,0,0,0,4.86-2.91l2.5-2.26-13.62-6.59c-12-5.82-13.67-6.79-14.05-8.3a4.58,4.58,0,0,1,2.92-5.31c1.38-.45,3.84.55,16.35,6.66,13.79,6.73,15,7.19,18.51,7.23,4.71.05,6.67-1.11,7.7-4.53.62-2.07.6-2.64-.13-3.31-.48-.45-7.81-4.78-16.29-9.63s-15.9-9.22-16.5-9.73c-1.7-1.47-1.4-4.72.59-6.28a3.88,3.88,0,0,1,2.94-1c.7.18,9,4.77,18.42,10.21,15,8.65,17.48,9.89,19.83,9.89a15.07,15.07,0,0,0,4.28-.6c2.2-.83,4.11-4.15,3.9-6.76-.16-2.1-.47-2.31-18.72-13.26-10.21-6.12-19-11.51-19.58-12-1.57-1.3-1.35-5.33.35-6.52a5.34,5.34,0,0,1,2.45-1c.59,0,10.56,5.69,22.15,12.64,19,11.4,21.35,12.64,23.82,12.64,2.3,0,3.09-.34,4.85-2.09s2.09-2.59,2.09-4.49C427.77,293,426.09,291.29,411.12,279.83Z"/><path class="a" d="M265.11,189.7l-15,26.59c-23,40.86-28.31,50.35-28.31,50.83s15.95,10.48,16.77,10.57c.24,0,1.53-1.83,2.86-4.12s5.06-8.88,8.28-14.64,11.87-21.15,19.19-34.18,13.33-23.85,13.33-24.06a87.89,87.89,0,0,0-8.56-5.68Z"/><path class="b" d="M142.56,427h26.2c7.48,0,11.8-4.6,12.9-13.67H149.43A28.35,28.35,0,0,1,142.56,427Z"/><path class="b" d="M139.76,407.77V122c0-14-9-19-9-19H95.25a27.4,27.4,0,0,1,6.47,17.76h0V121c0,.33,0,.63,0,1V407.77h0v.56A18.66,18.66,0,0,0,120.33,427c10.29,0,19.32-8.49,19.56-18.26,0-.14,0-.27,0-.41a5,5,0,0,1,.06-.56Z"/><path class="b" d="M79,103.88a19.82,19.82,0,0,0-5.88-.89c-8.89,0-16.41,5.41-18.8,12.8H91c-.12-.4-.26-.8-.41-1.18A17.9,17.9,0,0,0,79,103.88Z"/><path class="b" d="M236,341.72c-12.63,0-19.48,6.47-19.48,16.9v8.15c0,10.43,6.85,16.69,19.48,16.69s19.39-6.26,19.39-16.69v-8.15C255.35,348.19,248.6,341.72,236,341.72Zm3.59,23.79c0,2-1.16,3-3.48,3-2.53,0-3.58-1-3.58-3v-5.74c0-2,1-3,3.58-3,2.32,0,3.48,1,3.48,3Z"/><path class="b" d="M159,323.25v8.14c0,10.33,6.84,16.7,19.48,16.7s19.38-6.37,19.38-16.7v-8.14c0-10.44-6.74-16.91-19.38-16.91S159,312.81,159,323.25Zm23,1.15v5.74c0,2-1.16,3-3.48,3-2.52,0-3.58-1-3.58-3V324.4c0-2,1.06-3,3.58-3C180.77,321.37,181.93,322.41,181.93,324.4Z"/><path class="b" d="M241.55,307.91H228.28c-5.06,0-6.11.42-8.54,3.76l-48.66,65.74c-1.68,2.4-1,4.59,2.32,4.59h12.74c5.48,0,6.43-.52,9.06-4.07l48.56-65.74C245.45,310,244.6,307.91,241.55,307.91Z"/><path class="b" d="M160.44,138H291.76a5,5,0,1,0,0-10H160.44a5,5,0,1,0,0,10Z"/><path class="b" d="M160.44,156.67H291.76a5,5,0,0,0,0-10H160.44a5,5,0,0,0,0,10Z"/><path class="b" d="M214.9,177.28H161a5,5,0,0,0,0,10h54a5,5,0,0,0,0-10Z"/><path class="b" d="M219.9,201a5,5,0,0,0-5-5H161a5,5,0,0,0,0,10h54A5,5,0,0,0,219.9,201Z"/><path class="b" d="M333.62,323.41c-2.26-.79-2.7-.78-4.07.12a22.68,22.68,0,0,0-3,3.21c-1.4,1.68-3,3.77-4.46,5.72a43,43,0,0,0-3.58,5.38c-1.31,2.87.63,6.76,3.58,8.57a6.3,6.3,0,0,0,3.31,1,7.88,7.88,0,0,0,1.15-.07c1.22-.18,1.92-.78,3.36-2.55,5.61-6.9,9.05-12.34,9.05-14.31A8.07,8.07,0,0,0,333.62,323.41Z"/><path class="b" d="M325.21,310.81a8,8,0,0,0-3.11-5.11,6.63,6.63,0,0,0-5.54-1.43,2.62,2.62,0,0,0-.4.11c-1.5.52-16.33,20-17.47,22.92s1.82,7.93,5.51,9c3.19.9,4.62-.27,12.36-10.81l.85-1.16c2-2.78,3.55-4.86,4.69-6.48C325.28,313.28,325.43,312.48,325.21,310.81Z"/><path class="b" d="M308.55,299.05c2.44-2.87,2.69-5.65.81-8.69-1.68-2.73-5.59-4.33-7.86-3.23-.92.45-5.77,6.42-11.36,14-10.47,14.2-11,15.32-8.75,19.1,1.92,3.25,6.68,4.83,8.95,3,.52-.42,4.37-5.48,8.55-11.25S307.42,300.39,308.55,299.05Z"/><path class="b" d="M279.54,287.29a6.52,6.52,0,0,0-3.88-.81c-2.16.18-2.69.63-6.22,5.31-3.26,4.33-3.85,5.5-3.85,7.63s.4,2.91,2.39,4.9,2.88,2.4,4.51,2.4a6.09,6.09,0,0,0,3.09-.77c2.09-1.65,7.89-10.56,7.89-12.12C283.47,291.81,281.53,288.59,279.54,287.29Z"/><path class="b" d="M429.61,241.35c-7.53-13.4-13.74-24.41-13.8-24.48a43.87,43.87,0,0,0-4.66,1.08c-5.78,1.52-10,1.5-17-.08-21.57-4.86-25.71-5.31-40.26-4.32-11.77.79-22.54,2.41-26.08,3.9a4.89,4.89,0,0,0-1.26.81,32.48,32.48,0,0,0-4.46,5.28c-1.28,1.73-2.85,3.94-4.85,6.79l-.69,1c-9.67,13.84-11.3,16.54-11.85,19.51l-.44,2.41,4.41-.32a22.85,22.85,0,0,0,7.88-2.11,31.43,31.43,0,0,0,5.54-3.33,43.41,43.41,0,0,0,4.46-3.87,54.11,54.11,0,0,0,4.78-5.45c2.73-3.55,2.8-3.59,9.66-5.78l6.91-2.2,6.79,3.4c21.24,10.68,45.22,26.23,66.6,43.19,4.07,3.23,7.56,5.87,7.77,5.88a15.3,15.3,0,0,0,2.86-1.69,92.25,92.25,0,0,0,7.9-6.84c5.4-5.14,5.41-5.14,4.45-6.78C443.75,266.45,437.15,254.75,429.61,241.35Z"/><path class="b" d="M433.71,190.17c-.42,0-11.73,6.77-16.32,9.78-.82.53,1,3.87,36.42,66.84,3.38,6,6.29,10.94,6.46,10.94s4.15-2.28,8.85-5.08,8.48-5.25,8.42-5.44C476.87,265.33,434.11,190.17,433.71,190.17Z"/><path class="c" d="M176.06,223.1a15.28,15.28,0,0,0-11.29,25.6,15.23,15.23,0,0,0-4,10.3,5,5,0,0,0,10,0,5.3,5.3,0,0,1,10.6,0,5,5,0,0,0,5,5,5,5,0,0,0,5-5,15.19,15.19,0,0,0-4-10.3,15.28,15.28,0,0,0-11.29-25.6Zm.65,20.63c-.22,0-.43,0-.65,0l-.66,0a5.31,5.31,0,1,1,1.31,0Z"/><path class="c" d="M486.1,265.83c-.21-1.06-4.23-8.74-8.93-17.06s-13.62-24.15-19.82-35.17c-16.43-29.23-16.73-29.72-19.11-31.33-3.54-2.41-5.68-1.76-17.25,5.25-6.76,4.09-10.64,6.85-11.56,8.2-1.89,2.76-1.82,6.3.2,10.08a12.15,12.15,0,0,1,1.38,3.14c-.88.71-4.92,1.58-7.33,1.58-1.62,0-7.89-1.1-13.94-2.44-13.61-3-22.3-3.94-32-3.43-15,.79-24.77,2-31.22,4.3V120.81C326.56,105.21,314,93,298,93H72.09c-.1,0-.2,0-.31,0-15.5.65-27.94,12.56-28.26,27.22a5,5,0,0,0,5,5.57l.46,0H91.72V408.33A28.68,28.68,0,0,0,119,437c.11,0,.21,0,.33,0H346.12c.12,0,.22,0,.33,0,15.47-.68,28.31-13.52,28.31-28.64a5,5,0,0,0-5-5h-43.2V356a13.13,13.13,0,0,0,4.25-.86,19.32,19.32,0,0,0,5.09-4l2.8-3,4.72,1.5c19.08,6.06,29.47,5,37.61-3.94,3.19-3.49,3.37-3.59,7.89-4.32a19.32,19.32,0,0,0,6.91-2.24c2.56-1.69,5-5.47,6-9.39.55-2.12,1-2.62,2.09-2.62a23.47,23.47,0,0,0,4.66-1,14.69,14.69,0,0,0,9.73-10l1.08-3.66,3.18-.33a15.08,15.08,0,0,0,13.8-15.41,14.44,14.44,0,0,0-.89-5.33c-.89-1.73-.87-1.78,1.7-3.46a71.86,71.86,0,0,0,7.41-6.37c5.22-5.06,4.87-5,7.18-.69s6.3,6.59,9.85,5.77c2-.47,19.49-11,21.77-13.06A8.86,8.86,0,0,0,486.1,265.83Zm-17,6.82c-4.7,2.8-8.68,5.08-8.85,5.08s-3.08-4.92-6.46-10.94c-35.41-63-37.24-66.31-36.42-66.84,4.59-3,15.9-9.78,16.32-9.78s43.16,75.16,43.83,77C477.6,267.4,473.82,269.85,469.12,272.65ZM289.29,195.16c-1.53-1.81-18.83-12.66-21.9-13.73a8.61,8.61,0,0,0-7.57,1.38,20.73,20.73,0,0,0-3.63,5.07c-1.14,2.11-10.9,19.51-21.71,38.67s-20.18,36.05-20.84,37.54c-1,2.35-1.11,3-.46,5.35a9.89,9.89,0,0,0,2.07,3.88c2.19,2,20.55,12.91,22.53,13.34a7.52,7.52,0,0,0,4.59-.8c2.27-1,3.13-1.91,5-5.31,2.69-4.82,2.2-5,8.66,3l4.45,5.52-1.6,2.42c-2.12,3.21-2.58,9.1-1,13.18A17.12,17.12,0,0,0,269.67,315c1.76.38,1.95.66,2.28,3.42.91,7.73,7.84,14.15,15.3,14.18,2.85,0,2.87,0,4.51,3.38a15,15,0,0,0,14.65,8.9l3.75-.15,1.43,2.81a15.5,15.5,0,0,0,5,5.64v50.15H144.85a5,5,0,0,0-4.94,4.44,5,5,0,0,0-.06.56c0,.14,0,.27,0,.41-.24,9.77-9.27,18.26-19.56,18.26a18.66,18.66,0,0,1-18.61-18.67V120.77h0A27.4,27.4,0,0,0,95.25,103H298c10.41,0,18.56,7.79,18.6,17.75v95.53l-.76,1.18-6.76-1c-3.72-.57-7.73-1.33-8.92-1.69-1.9-.57-11.71-5.9-11.71-6.35,0-.1.7-1.73,1.57-3.62C291.81,200.76,291.61,197.92,289.29,195.16Zm-7.05,5.53c0,.21-6,11-13.33,24.06s-16,28.41-19.19,34.18-6.95,12.35-8.28,14.64-2.62,4.14-2.86,4.12c-.82-.09-16.76-10.13-16.77-10.57s5.28-10,28.31-50.83l15-26.59,8.57,5.31A87.89,87.89,0,0,1,282.24,200.69Zm44.32,146.66a7.88,7.88,0,0,1-1.15.07,6.3,6.3,0,0,1-3.31-1c-3-1.81-4.89-5.7-3.58-8.57a43,43,0,0,1,3.58-5.38c1.43-1.95,3.06-4,4.46-5.72a22.68,22.68,0,0,1,3-3.21c1.37-.9,1.81-.91,4.07-.12a8.07,8.07,0,0,1,5.35,7.08c0,2-3.44,7.41-9.05,14.31C328.48,346.57,327.78,347.17,326.56,347.35ZM345.17,427H187.48a32,32,0,0,0,4.23-13.67H364A20.08,20.08,0,0,1,345.17,427ZM91,115.79H54.31c2.39-7.39,9.91-12.8,18.8-12.8a19.82,19.82,0,0,1,5.88.89,17.9,17.9,0,0,1,11.6,10.73C90.74,115,90.88,115.39,91,115.79Zm58.43,297.54h32.23c-1.1,9.07-5.42,13.67-12.9,13.67h-26.2A28.35,28.35,0,0,0,149.43,413.33ZM308.55,299.05c-1.13,1.34-5.47,7.14-9.66,12.91s-8,10.83-8.55,11.25c-2.27,1.87-7,.29-8.95-3-2.23-3.78-1.72-4.9,8.75-19.1,5.59-7.6,10.44-13.57,11.36-14,2.27-1.1,6.18.5,7.86,3.23C311.24,293.4,311,296.18,308.55,299.05Zm13.55,18.76c-1.14,1.62-2.66,3.7-4.69,6.48l-.85,1.16c-7.74,10.54-9.17,11.71-12.36,10.81-3.69-1-6.69-5.91-5.51-9s16-22.4,17.47-22.92a2.62,2.62,0,0,1,.4-.11,6.63,6.63,0,0,1,5.54,1.43,8,8,0,0,1,3.11,5.11C325.43,312.48,325.28,313.28,322.1,317.81Zm-56.51-18.39c0-2.13.59-3.3,3.85-7.63,3.53-4.68,4.06-5.13,6.22-5.31a6.52,6.52,0,0,1,3.88.81c2,1.3,3.93,4.52,3.93,6.54,0,1.56-5.8,10.47-7.89,12.12a6.09,6.09,0,0,1-3.09.77c-1.63,0-2.66-.55-4.51-2.4S265.59,301.51,265.59,299.42ZM421.3,276.78c-21.38-17-45.36-32.51-66.6-43.19l-6.79-3.4-6.91,2.2c-6.86,2.19-6.93,2.23-9.66,5.78a54.11,54.11,0,0,1-4.78,5.45,43.41,43.41,0,0,1-4.46,3.87,31.43,31.43,0,0,1-5.54,3.33,22.85,22.85,0,0,1-7.88,2.11l-4.41.32.44-2.41c.55-3,2.18-5.67,11.85-19.51l.69-1c2-2.85,3.57-5.06,4.85-6.79a32.48,32.48,0,0,1,4.46-5.28,4.89,4.89,0,0,1,1.26-.81c3.54-1.49,14.31-3.11,26.08-3.9,14.55-1,18.69-.54,40.26,4.32,7,1.58,11.21,1.6,17,.08a43.87,43.87,0,0,1,4.66-1.08c.06.07,6.27,11.08,13.8,24.48s14.14,25.1,14.67,26c1,1.64,1,1.64-4.45,6.78a92.25,92.25,0,0,1-7.9,6.84,15.3,15.3,0,0,1-2.86,1.69C428.86,282.65,425.37,280,421.3,276.78Zm4.38,24.76c-1.76,1.75-2.55,2.09-4.85,2.09-2.47,0-4.82-1.24-23.82-12.64-11.59-6.95-21.56-12.64-22.15-12.64a5.34,5.34,0,0,0-2.45,1c-1.7,1.19-1.92,5.22-.35,6.52.56.47,9.37,5.86,19.58,12,18.25,10.95,18.56,11.16,18.72,13.26.21,2.61-1.7,5.93-3.9,6.76a15.07,15.07,0,0,1-4.28.6c-2.35,0-4.84-1.24-19.83-9.89-9.43-5.44-17.72-10-18.42-10.21a3.88,3.88,0,0,0-2.94,1c-2,1.56-2.29,4.81-.59,6.28.6.51,8,4.89,16.5,9.73s15.81,9.18,16.29,9.63c.73.67.75,1.24.13,3.31-1,3.42-3,4.58-7.7,4.53-3.55,0-4.72-.5-18.51-7.23-12.51-6.11-15-7.11-16.35-6.66a4.58,4.58,0,0,0-2.92,5.31c.38,1.51,2,2.48,14.05,8.3l13.62,6.59-2.5,2.26a15,15,0,0,1-4.86,2.91,25.8,25.8,0,0,1-9.44.24c-2.43-.41-11.88-2.76-13.43-3.35l-1.4-.53,1.68-2.54c3.55-5.36,2.27-13.8-2.86-18.93-2.14-2.15-6.13-4.45-7.71-4.45-.69,0-.95-.64-.95-2.35a18.13,18.13,0,0,0-4.24-11.28,19.26,19.26,0,0,0-3.24-2.85,17.34,17.34,0,0,0-4.46-2.36,4.79,4.79,0,0,0-1.46-.27c-1,0-1.29-.53-1.59-3a15.31,15.31,0,0,0-2.49-6.86,18.1,18.1,0,0,0-2.89-3.31c-3.41-3.08-5.94-4.06-10.47-4.06-5.4,0-9.12,2.19-12.35,7.28-.52.82-.74.86-1,.22-.82-2-4.19-5.07-7.13-6.53-5.17-2.58-11.95-1.91-15.62,1.54l-1.29,1.21-4.05-5.1c-2.23-2.8-4.77-5.77-5.65-6.59a6.07,6.07,0,0,1-1.61-2c0-.43,28.77-51.71,29.34-52.29.13-.14,1.84.73,3.8,1.93,7.09,4.34,9.09,5,20,6.9l2.23.38-5.25,7.85c-6.78,10.12-8.27,13.38-8.37,18.24-.15,7.13,3.28,10.27,11.2,10.27a29.74,29.74,0,0,0,9.16-1.57,37,37,0,0,0,5.54-2.36,38.23,38.23,0,0,0,3.38-2q.48-.31,1.08-.78c4.28-3.28,12.41-11.33,12.41-12.42,0-.27,1.95-1.09,4.33-1.82l4.34-1.31,8.77,4.74c20.4,11,34.95,20.5,54.71,35.63,15,11.46,16.65,13.2,16.65,17.22C427.77,299,427.34,299.87,425.68,301.54Z"/></svg>